<svg width="18" height="18" viewBox="0 0 18 18" fill="none" xmlns="http://www.w3.org/2000/svg">
<path d="M0.833344 -2.04444e-05C0.373106 -2.04444e-05 1.00732e-05 0.373076 1.00732e-05 0.833313C1.00732e-05 1.29355 0.373106 1.66665 0.833344 1.66665V-2.04444e-05ZM2.74379 0.833313L3.54815 0.615467C3.44977 0.252215 3.12013 -2.04444e-05 2.74379 -2.04444e-05V0.833313ZM5.84827 12.296L5.04391 12.5139C5.15247 12.9147 5.53957 13.1744 5.95163 13.1229L5.84827 12.296ZM15.4005 11.102L15.5039 11.9289C15.8578 11.8846 16.1443 11.6201 16.2166 11.2708L15.4005 11.102ZM16.8333 4.1766L17.6494 4.34544C17.7002 4.10001 17.6378 3.84476 17.4795 3.65041C17.3213 3.45606 17.084 3.34326 16.8333 3.34326V4.1766ZM3.64926 4.1766L2.84491 4.39444L3.64926 4.1766ZM0.833344 1.66665H2.74379V-2.04444e-05H0.833344V1.66665ZM5.95163 13.1229L15.5039 11.9289L15.2971 10.2751L5.74491 11.4691L5.95163 13.1229ZM16.2166 11.2708L17.6494 4.34544L16.0173 4.00776L14.5845 10.9331L16.2166 11.2708ZM1.93944 1.05116L2.84491 4.39444L4.45362 3.95875L3.54815 0.615467L1.93944 1.05116ZM2.84491 4.39444L5.04391 12.5139L6.65262 12.0782L4.45362 3.95875L2.84491 4.39444ZM16.8333 3.34326H3.64926V5.00993H16.8333V3.34326ZM8.00001 15.4227C8.00001 15.6528 7.81346 15.8394 7.58334 15.8394V17.506C8.73394 17.506 9.66668 16.5733 9.66668 15.4227H8.00001ZM7.58334 15.8394C7.35323 15.8394 7.16668 15.6528 7.16668 15.4227H5.50001C5.50001 16.5733 6.43275 17.506 7.58334 17.506V15.8394ZM7.16668 15.4227C7.16668 15.1926 7.35323 15.006 7.58334 15.006V13.3394C6.43275 13.3394 5.50001 14.2721 5.50001 15.4227H7.16668ZM7.58334 15.006C7.81346 15.006 8.00001 15.1926 8.00001 15.4227H9.66668C9.66668 14.2721 8.73394 13.3394 7.58334 13.3394V15.006ZM14.6667 15.4227C14.6667 15.6528 14.4801 15.8394 14.25 15.8394V17.506C15.4006 17.506 16.3333 16.5733 16.3333 15.4227H14.6667ZM14.25 15.8394C14.0199 15.8394 13.8333 15.6528 13.8333 15.4227H12.1667C12.1667 16.5733 13.0994 17.506 14.25 17.506V15.8394ZM13.8333 15.4227C13.8333 15.1926 14.0199 15.006 14.25 15.006V13.3394C13.0994 13.3394 12.1667 14.2721 12.1667 15.4227H13.8333ZM14.25 15.006C14.4801 15.006 14.6667 15.1926 14.6667 15.4227H16.3333C16.3333 14.2721 15.4006 13.3394 14.25 13.3394V15.006Z" fill="#3B944E"/>
</svg>
